<?xml version="1.0" encoding="UTF-8"?> <svg xmlns="http://www.w3.org/2000/svg" width="1178" height="2332" viewBox="0 0 1178 2332" fill="none"> <path fill-rule="evenodd" clip-rule="evenodd" d="M862.766 1833.18L1096.05 1170L858.554 494.84C819.135 382.781 790.955 302.767 766.945 244.498C743.276 187.058 725.636 155.78 708.072 137.922C676.679 106.003 642.821 99.001 610.134 117.667C591.846 128.11 572.799 151.8 546.455 198.898C519.732 246.674 487.774 314.251 443.066 408.912L95.627 1144.54L442.416 1908.61C487.263 2007.42 519.332 2077.99 546.195 2128C572.683 2177.31 591.879 2202.26 610.358 2213.54C643.399 2233.7 677.757 2227.54 709.644 2195.72C727.478 2177.93 745.418 2146.31 769.515 2087.92C793.953 2028.71 822.646 1947.24 862.766 1833.18ZM421.43 1985.59C510.26 2181.31 554.676 2279.17 603.167 2308.76C642.377 2332.69 683.15 2325.37 720.99 2287.62C767.788 2240.93 807.522 2127.97 886.991 1902.05L1144.5 1170L882.779 425.971C804.705 204.021 765.669 93.0461 719.609 46.2155C682.356 8.33824 642.177 0.0285844 603.387 22.1791C555.429 49.5656 511.153 143.311 422.602 330.801L38.9999 1143L421.43 1985.59Z" fill="black"></path> <path fill-rule="evenodd" clip-rule="evenodd" d="M789.505 1734.33L951.701 1170L789.505 605.666C752.057 475.369 725.207 382.066 702.408 315.086C679.877 248.895 663.254 214.447 646.933 196.978C617.666 165.65 586.367 165.65 557.1 196.978C540.779 214.447 524.157 248.895 501.626 315.087C478.826 382.067 451.977 475.37 414.528 605.667L252.332 1170L414.528 1734.33C451.977 1864.63 478.826 1957.93 501.626 2024.91C524.157 2091.11 540.779 2125.55 557.1 2143.02C586.367 2174.35 617.666 2174.35 646.933 2143.02C663.254 2125.55 679.877 2091.11 702.408 2024.91C725.207 1957.93 752.057 1864.63 789.505 1734.33ZM992.033 1170L809.671 535.501C735.462 277.303 698.358 148.204 655.319 102.136C620.587 64.9599 583.446 64.9599 548.714 102.136C505.675 148.204 468.571 277.304 394.362 535.502L212 1170L394.362 1804.5C468.571 2062.7 505.675 2191.8 548.714 2237.86C583.446 2275.04 620.587 2275.04 655.319 2237.86C698.358 2191.8 735.463 2062.7 809.672 1804.5L992.033 1170Z" fill="black"></path> <path fill-rule="evenodd" clip-rule="evenodd" d="M705.621 1520.63L791.342 1170.5L707.448 827.835C668.231 667.654 639.973 552.375 616.179 471.36C592.549 390.906 575.498 352.073 559.277 336.506C529.981 308.391 499.211 322.164 472.102 375.526C457.092 405.073 442.505 458.068 423.702 557.516C404.767 657.657 383.293 795.197 353.501 986.267L323.024 1181.72L352.667 1368.5C382.617 1557.21 404.2 1693.03 423.194 1791.87C442.053 1890.01 456.647 1942.28 471.633 1971.37C498.69 2023.87 529.325 2037.07 558.468 2008.79C574.611 1993.13 591.555 1954.45 615.013 1874.54C638.64 1794.07 666.688 1679.65 705.621 1520.63ZM293.841 1182.2L332.065 1423.05C391.464 1797.32 421.163 1984.45 461.097 2061.94C493.205 2124.25 529.559 2139.92 564.144 2106.36C607.159 2064.61 645.766 1906.92 722.982 1591.54L826.064 1170.5L724.809 756.924C647.028 439.23 608.137 280.383 564.892 238.881C530.128 205.518 493.613 221.862 461.443 285.187C421.426 363.958 391.881 553.438 332.792 932.397L293.841 1182.2Z" fill="black"></path> <path fill-rule="evenodd" clip-rule="evenodd" d="M355 1170C379.476 1546.31 391.714 1734.47 410.284 1836.5C440.059 2000.1 482.78 2053.65 521.324 1975.69C545.364 1927.06 569.605 1784.63 618.085 1499.77L674.208 1170L618.085 840.232C569.605 555.369 545.364 412.937 521.324 364.312C482.78 286.349 440.058 339.899 410.284 503.498C391.714 605.532 379.476 793.688 355 1170ZM649.711 1170L605.837 912.202C581.418 768.722 563.734 664.899 549.172 590.482C534.598 516.004 524.541 478.462 515.686 460.551C483.206 394.854 447.205 439.979 422.115 577.839C415.275 615.424 408.701 673.812 400.568 776.751C392.971 872.916 384.667 999.088 373.544 1170C384.667 1340.91 392.971 1467.08 400.568 1563.25C408.701 1666.19 415.275 1724.58 422.115 1762.16C447.205 1900.02 483.206 1945.15 515.686 1879.45C524.542 1861.54 534.598 1824 549.172 1749.52C563.734 1675.1 581.418 1571.28 605.837 1427.8L649.711 1170Z" fill="black"></path> <path fill-rule="evenodd" clip-rule="evenodd" d="M356.239 1163C366.87 1449.93 372.186 1593.4 379.336 1679.43C397.962 1903.57 428.879 1971.57 454.788 1845.37C464.733 1796.93 475.288 1688.37 496.398 1471.24L526.367 1163L496.398 854.757C475.288 637.63 464.733 529.067 454.788 480.629C428.879 354.434 397.962 422.428 379.336 646.568C372.186 732.6 366.87 876.068 356.239 1163ZM366.931 1163C371.597 1288.82 375.104 1382.39 378.228 1454.94C381.653 1534.49 384.303 1581.05 386.93 1612.67C402.626 1801.54 428.679 1858.84 450.512 1752.5C454.167 1734.7 458.436 1703.36 464.724 1645.17C471.003 1587.08 478.701 1507.94 489.334 1398.58L512.238 1163L489.334 927.419C478.701 818.059 471.003 738.922 464.724 680.83C458.436 622.643 454.167 591.303 450.512 573.503C428.679 467.161 402.626 524.458 386.93 713.335C384.303 744.951 381.653 791.507 378.228 871.056C375.104 943.61 371.597 1037.18 366.931 1163Z" fill="black"></path> </svg> 