<?xml version="1.0" encoding="UTF-8"?> <svg xmlns="http://www.w3.org/2000/svg" width="400" height="400" viewBox="0 0 400 400" fill="none"><g clip-path="url(#clip0_122_218)"><rect width="400" height="400" rx="35" fill="black"></rect><path d="M59.5327 95.4029H114.637C120.806 95.4029 125.574 94.0008 128.939 91.1965C132.444 88.3922 134.197 84.326 134.197 78.9978C134.197 73.6697 132.444 69.6035 128.939 66.7992C125.574 63.9949 120.806 62.5927 114.637 62.5927H52.5921L74.6759 39.878V185H25.6709V27.2587H121.998C134.197 27.2587 144.923 29.432 154.178 33.7787C163.432 38.1253 170.653 44.1545 175.841 51.8663C181.029 59.5781 183.623 68.622 183.623 78.9978C183.623 89.0933 181.029 98.067 175.841 105.919C170.653 113.631 163.432 119.66 154.178 124.007C144.923 128.213 134.197 130.316 121.998 130.316H59.5327V95.4029ZM80.5649 111.177H135.038L189.301 185H133.145L80.5649 111.177Z" fill="white"></path><path d="M209.671 185V27.2587H258.255V146.511L245.636 136.205L329.554 27.2587H380.873L254.049 185H209.671ZM285.176 111.177L321.141 82.1527L383.186 185H327.661L285.176 111.177Z" fill="white"></path><path d="M19.5716 318.261H69.2075C69.7684 321.906 71.5211 325.131 74.4656 327.936C77.5503 330.6 81.6866 332.703 86.8745 334.245C92.0625 335.647 98.1618 336.349 105.173 336.349C114.847 336.349 122.349 335.227 127.677 332.983C133.145 330.74 135.88 327.305 135.88 322.678C135.88 319.453 134.337 316.859 131.252 314.896C128.168 312.792 122.068 311.39 112.954 310.689L85.192 308.376C62.4772 306.693 46.002 301.786 35.7664 293.653C25.6709 285.381 20.6232 274.304 20.6232 260.422C20.6232 249.065 23.9182 239.601 30.5083 232.029C37.0984 224.317 46.2824 218.498 58.0605 214.572C69.8385 210.646 83.7197 208.683 99.7042 208.683C115.128 208.683 128.799 210.857 140.717 215.203C152.775 219.55 162.31 225.719 169.321 233.712C176.472 241.564 180.398 250.748 181.099 261.264H131.463C130.902 258.179 129.289 255.515 126.625 253.271C124.101 250.888 120.456 249.065 115.689 247.803C110.921 246.541 105.243 245.91 98.6526 245.91C89.9593 245.91 83.0186 246.962 77.8307 249.065C72.783 251.168 70.2591 254.323 70.2591 258.529C70.2591 261.614 71.7314 264.138 74.6759 266.101C77.7606 268.064 83.3692 269.396 91.5016 270.097L121.998 272.621C137.141 273.743 149.34 276.126 158.594 279.772C167.989 283.277 174.789 288.115 178.995 294.284C183.202 300.313 185.305 307.955 185.305 317.209C185.305 328.426 181.94 338.312 175.21 346.865C168.479 355.277 159.015 361.868 146.816 366.635C134.758 371.262 120.596 373.575 104.331 373.575C87.6457 373.575 72.9933 371.262 60.374 366.635C47.7547 362.008 37.8696 355.558 30.7186 347.285C23.5677 338.872 19.852 329.198 19.5716 318.261Z" fill="white"></path><path opacity="0.6" d="M364.46 301.856C364.039 311.11 362.146 320.084 358.781 328.777C355.416 337.33 350.509 345.042 344.059 351.912C337.609 358.643 329.476 363.971 319.661 367.897C309.846 371.683 298.349 373.575 285.169 373.575C272.83 373.575 261.262 371.823 250.466 368.317C239.669 364.672 230.134 359.414 221.862 352.543C213.589 345.533 207.069 336.909 202.302 326.674C197.675 316.438 195.361 304.59 195.361 291.129C195.361 277.669 197.675 265.821 202.302 255.585C207.069 245.349 213.659 236.796 222.072 229.926C230.625 222.915 240.44 217.657 251.517 214.152C262.734 210.506 274.793 208.683 287.693 208.683C305.5 208.683 320.783 211.347 333.543 216.675C346.442 222.004 356.818 229.365 364.67 238.759C372.522 248.154 377.57 258.95 379.813 271.149H330.598C329.336 266.522 326.672 262.596 322.606 259.371C318.68 256.006 313.772 253.482 307.883 251.799C301.994 249.976 295.404 249.065 288.113 249.065C279.139 249.065 271.358 250.607 264.767 253.692C258.318 256.777 253.34 261.404 249.835 267.573C246.329 273.743 244.577 281.595 244.577 291.129C244.577 300.664 246.469 308.656 250.255 315.106C254.181 321.556 259.72 326.393 266.871 329.618C274.162 332.843 282.715 334.456 292.53 334.456C302.064 334.456 310.477 333.194 317.769 330.67C325.2 328.146 331.159 324.43 335.646 319.523C340.133 314.615 342.797 308.516 343.638 301.225L364.46 301.856ZM295.474 316.578V286.082H381.286V370H347.003L339.852 308.586L348.896 316.578H295.474Z" fill="white"></path></g><defs><clipPath id="clip0_122_218"><rect width="400" height="400" rx="35" fill="white"></rect></clipPath></defs></svg> 