<?xml version="1.0" encoding="UTF-8"?> <svg xmlns="http://www.w3.org/2000/svg" width="638" height="326" viewBox="0 0 638 326" fill="none"><path d="M130.357 252.66C130.046 259.496 128.648 266.125 126.162 272.547C123.676 278.866 120.051 284.563 115.286 289.638C110.521 294.61 104.513 298.546 97.2628 301.446C90.0121 304.243 81.5184 305.641 71.7818 305.641C62.6666 305.641 54.1212 304.347 46.1454 301.757C38.1697 299.064 31.1262 295.18 25.0149 290.104C18.9036 284.925 14.087 278.555 10.5653 270.993C7.1471 263.432 5.43801 254.679 5.43801 244.736C5.43801 234.792 7.1471 226.039 10.5653 218.478C14.087 210.916 18.9554 204.598 25.1702 199.522C31.4887 194.343 38.7394 190.459 46.9223 187.869C55.2088 185.176 64.1168 183.83 73.6462 183.83C86.8011 183.83 98.0914 185.798 107.517 189.734C117.047 193.67 124.712 199.108 130.512 206.048C136.313 212.988 140.042 220.964 141.699 229.975H105.342C104.41 226.557 102.442 223.657 99.438 221.274C96.5377 218.788 92.9124 216.924 88.5619 215.681C84.2115 214.334 79.3432 213.661 73.957 213.661C67.3278 213.661 61.579 214.801 56.7107 217.079C51.946 219.358 48.2688 222.776 45.6793 227.334C43.0898 231.891 41.795 237.692 41.795 244.736C41.795 251.779 43.1934 257.683 45.9901 262.448C48.8903 267.213 52.9818 270.786 58.2644 273.169C63.6507 275.551 69.9691 276.742 77.2198 276.742C84.2633 276.742 90.4782 275.81 95.8644 273.945C101.354 272.081 105.756 269.336 109.071 265.711C112.386 262.085 114.354 257.58 114.975 252.193L130.357 252.66ZM79.395 263.536V241.007H142.787V303H117.461L112.178 257.631L118.859 263.536H79.395ZM158.748 183.364H194.328V303H158.748V183.364ZM264.709 305.641C253.211 305.641 243.112 303.673 234.411 299.737C225.71 295.801 218.926 290.311 214.057 283.268C209.189 276.121 206.755 267.886 206.755 258.564C206.755 249.034 209.189 240.748 214.057 233.704C218.926 226.557 225.71 221.067 234.411 217.235C243.112 213.299 253.263 211.331 264.864 211.331C276.362 211.331 286.461 213.299 295.162 217.235C303.862 221.067 310.595 226.557 315.36 233.704C320.228 240.748 322.662 249.034 322.662 258.564C322.662 267.886 320.228 276.121 315.36 283.268C310.595 290.311 303.862 295.801 295.162 299.737C286.461 303.673 276.31 305.641 264.709 305.641ZM264.864 279.539C269.525 279.539 273.461 278.71 276.672 277.053C279.987 275.396 282.473 273.013 284.13 269.906C285.891 266.695 286.771 262.914 286.771 258.564C286.771 254.11 285.891 250.329 284.13 247.222C282.473 244.01 279.987 241.576 276.672 239.919C273.461 238.262 269.525 237.433 264.864 237.433C260.203 237.433 256.215 238.262 252.9 239.919C249.586 241.576 247.048 244.01 245.287 247.222C243.63 250.329 242.801 254.058 242.801 258.408C242.801 262.862 243.63 266.695 245.287 269.906C247.048 273.013 249.586 275.396 252.9 277.053C256.215 278.71 260.203 279.539 264.864 279.539ZM335.058 183.364H370.638V238.21L366.288 247.222V271.615L370.638 279.85V303H335.058V183.364ZM359.762 258.564C361.005 248.931 363.698 240.592 367.842 233.549C372.088 226.402 377.526 220.912 384.156 217.079C390.785 213.247 398.243 211.331 406.529 211.331C415.334 211.331 422.999 213.299 429.524 217.235C436.05 221.067 441.177 226.557 444.906 233.704C448.635 240.748 450.499 249.034 450.499 258.564C450.499 267.886 448.635 276.121 444.906 283.268C441.177 290.311 436.05 295.801 429.524 299.737C422.999 303.673 415.334 305.641 406.529 305.641C398.139 305.641 390.629 303.725 384 299.893C377.475 295.956 372.14 290.467 367.997 283.423C363.854 276.276 361.109 267.99 359.762 258.564ZM414.453 258.564C414.453 254.628 413.624 251.158 411.967 248.154C410.413 245.046 408.186 242.612 405.286 240.851C402.489 239.09 399.227 238.21 395.498 238.21C391.665 238.21 387.936 239.09 384.311 240.851C380.789 242.612 377.734 245.046 375.144 248.154C372.554 251.158 370.586 254.628 369.24 258.564C370.586 262.5 372.554 265.97 375.144 268.974C377.734 271.977 380.789 274.36 384.311 276.121C387.936 277.882 391.665 278.762 395.498 278.762C399.227 278.762 402.489 277.882 405.286 276.121C408.186 274.36 410.413 271.977 411.967 268.974C413.624 265.97 414.453 262.5 414.453 258.564ZM542.513 303L538.318 271.304L542.669 258.564L538.318 245.979L542.513 213.972H579.492L573.588 258.408L579.492 303H542.513ZM550.437 258.564C549.194 267.99 546.45 276.276 542.203 283.423C538.059 290.467 532.673 295.956 526.044 299.893C519.518 303.725 512.009 305.641 503.515 305.641C494.918 305.641 487.305 303.673 480.675 299.737C474.046 295.801 468.867 290.311 465.138 283.268C461.513 276.121 459.7 267.886 459.7 258.564C459.7 249.034 461.513 240.748 465.138 233.704C468.867 226.557 474.046 221.067 480.675 217.235C487.305 213.299 494.918 211.331 503.515 211.331C512.009 211.331 519.518 213.247 526.044 217.079C532.673 220.912 538.111 226.402 542.358 233.549C546.605 240.592 549.298 248.931 550.437 258.564ZM495.591 258.564C495.591 262.5 496.368 265.97 497.922 268.974C499.579 271.977 501.858 274.36 504.758 276.121C507.658 277.882 510.973 278.762 514.702 278.762C518.534 278.762 522.212 277.882 525.733 276.121C529.255 274.36 532.362 271.977 535.056 268.974C537.749 265.97 539.717 262.5 540.96 258.564C539.717 254.628 537.749 251.158 535.056 248.154C532.362 245.046 529.255 242.612 525.733 240.851C522.212 239.09 518.534 238.21 514.702 238.21C510.973 238.21 507.658 239.09 504.758 240.851C501.858 242.612 499.579 245.046 497.922 248.154C496.368 251.158 495.591 254.628 495.591 258.564ZM593.455 183.364H629.035V303H593.455V183.364Z" fill="white"></path><path d="M35.9148 86.1774H76.6222C81.1798 86.1774 84.7016 85.1416 87.1875 83.07C89.777 80.9983 91.0718 77.9945 91.0718 74.0584C91.0718 70.1223 89.777 67.1184 87.1875 65.0468C84.7016 62.9752 81.1798 61.9394 76.6222 61.9394H30.7875L47.1016 45.1592V152.366H10.8999V35.8369H82.0602C91.0718 35.8369 98.9958 37.4424 105.832 40.6534C112.668 43.8645 118.003 48.3185 121.835 54.0154C125.668 59.7124 127.584 66.3934 127.584 74.0584C127.584 81.5162 125.668 88.1454 121.835 93.946C118.003 99.6429 112.668 104.097 105.832 107.308C98.9958 110.415 91.0718 111.969 82.0602 111.969H35.9148V86.1774ZM51.452 97.8303H91.6933L131.779 152.366H90.2949L51.452 97.8303ZM145.03 152.366V35.8369H180.92V123.933L171.598 116.32L233.591 35.8369H271.502L177.813 152.366H145.03ZM200.808 97.8303L227.377 76.389L273.211 152.366H232.193L200.808 97.8303ZM271.77 114.144H308.438C308.853 116.837 310.147 119.22 312.322 121.291C314.601 123.259 317.657 124.813 321.489 125.953C325.322 126.988 329.828 127.506 335.007 127.506C342.154 127.506 347.695 126.678 351.632 125.02C355.671 123.363 357.691 120.825 357.691 117.407C357.691 115.025 356.552 113.109 354.273 111.658C351.994 110.105 347.488 109.069 340.756 108.551L320.246 106.842C303.466 105.599 291.296 101.974 283.734 95.9658C276.276 89.8545 272.547 81.6716 272.547 71.4171C272.547 63.027 274.981 56.0353 279.85 50.4419C284.718 44.7449 291.503 40.4463 300.203 37.546C308.904 34.6457 319.159 33.1956 330.967 33.1956C342.361 33.1956 352.46 34.8011 361.265 38.0121C370.173 41.2231 377.216 45.7807 382.395 51.6848C387.678 57.4854 390.578 64.27 391.096 72.0386H354.428C354.014 69.7598 352.823 67.7917 350.855 66.1344C348.99 64.3735 346.297 63.027 342.775 62.0948C339.254 61.1625 335.059 60.6964 330.19 60.6964C323.768 60.6964 318.641 61.4733 314.808 63.027C311.08 64.5807 309.215 66.9113 309.215 70.0187C309.215 72.2975 310.303 74.162 312.478 75.6121C314.757 77.0622 318.9 78.0463 324.908 78.5642L347.437 80.4286C358.623 81.2573 367.635 83.0182 374.471 85.7113C381.411 88.3008 386.435 91.8744 389.542 96.4319C392.65 100.886 394.203 106.531 394.203 113.367C394.203 121.654 391.717 128.956 386.746 135.275C381.774 141.49 374.782 146.358 365.77 149.88C356.862 153.298 346.401 155.007 334.385 155.007C322.059 155.007 311.235 153.298 301.913 149.88C292.59 146.462 285.288 141.697 280.005 135.586C274.723 129.371 271.978 122.224 271.77 114.144Z" fill="white"></path></svg> 