<svg xmlns="http://www.w3.org/2000/svg" fill-rule="evenodd" viewBox="0 0 100 100">
    <path d="M35.377 62.522c-.854-.047-3.146-.007-3.404-.002a1.5 1.5 0 0 0-1.473 1.5V78a1.5 1.5 0 1 0 3 0v-5.49h2.206c1.927 0 4.794-1.275 4.794-4.79 0-1.835-.666-4.95-5.123-5.198zm.329 6.988H33.5v-4.008a33.84 33.84 0 0 1 1.711.016c1.519.084 2.289.448 2.289 2.203 0 1.521-1.134 1.774-1.794 1.789zM67.5 62.5h-6A1.5 1.5 0 0 0 60 64v14a1.5 1.5 0 1 0 3 0v-5.5h4a1.5 1.5 0 1 0 0-3h-4v-4h4.5a1.5 1.5 0 1 0 0-3zm-21.5 0a1.5 1.5 0 0 0-1.5 1.5v13.973a1.5 1.5 0 0 0 1.363 1.494c.052.005.388.033.91.033 1.627 0 5.066-.276 7.401-2.408 1.543-1.408 2.325-3.324 2.325-5.694C56.5 64.043 50.79 62.5 46 62.5zm6.16 12.369c-1.313 1.204-3.327 1.533-4.66 1.609V65.547c3.165.224 6 1.355 6 5.85 0 1.509-.438 2.645-1.34 3.472z"/>
    <path d="m79.567 29.924-18.26-18.479a1.501 1.501 0 0 0-1.067-.446H20.5a1.5 1.5 0 0 0-1.5 1.5v75a1.5 1.5 0 0 0 1.5 1.5h58a1.5 1.5 0 0 0 1.5-1.5V30.978c0-.394-.155-.773-.433-1.054zM62 16.415 74.93 29.5H62V16.415zM22 86V14h37v17a1.5 1.5 0 0 0 1.5 1.5H77V86H22z"/>
</svg>
